<?xml version="1.0" standalone="no"?>
<!DOCTYPE svg PUBLIC "-//W3C//DTD SVG 20010904//EN"
 "http://www.w3.org/TR/2001/REC-SVG-20010904/DTD/svg10.dtd">
<svg version="1.0" xmlns="http://www.w3.org/2000/svg"
 width="100.000000pt" height="100.000000pt" viewBox="0 0 100.000000 100.000000"
 preserveAspectRatio="xMidYMid meet">
<metadata>
Created by potrace 1.14, written by Peter Selinger 2001-2017
</metadata>
<g transform="translate(0.000000,100.000000) scale(0.100000,-0.100000)"
fill="#000000" stroke="none">
<path d="M475 984 c-47 -25 -93 -74 -100 -106 -8 -34 -9 -34 -42 -2 -65 65
-164 56 -224 -20 -17 -22 -23 -43 -24 -81 0 -63 18 -99 63 -127 l33 -20 -28
-30 c-28 -29 -28 -31 -31 -173 -6 -239 2 -245 288 -245 282 0 290 6 290 232 0
141 -9 176 -51 206 -20 14 -20 15 16 45 43 35 74 97 75 145 0 40 -24 99 -53
130 -52 56 -153 77 -212 46z m-38 -324 l26 -20 -78 0 -78 0 25 23 c14 13 29
34 33 46 l7 22 19 -25 c11 -14 31 -34 46 -46z"/>
<path d="M830 587 l-85 -42 -2 -145 -3 -145 88 -42 87 -42 3 115 c1 63 1 166
0 229 l-3 115 -85 -43z"/>
<path d="M245 76 c-36 -36 -65 -67 -65 -70 0 -3 33 -6 74 -6 l73 0 48 45 47
46 44 -46 44 -45 80 0 81 0 -70 70 -69 70 -111 0 -110 0 -66 -64z"/>
</g>
</svg>
